<svg width="86" height="86" viewBox="0 0 86 86" fill="none" xmlns="http://www.w3.org/2000/svg">
<path d="M76.4947 57.428C76.888 59.2813 77.2947 61.1973 76.6827 62.2547C76.052 63.344 74.168 63.952 72.3453 64.5413C70.4427 65.156 68.4747 65.792 67.1333 67.1333C65.792 68.4747 65.156 70.4427 64.5413 72.3453C63.952 74.168 63.3427 76.0533 62.2547 76.6827C61.1973 77.2933 59.2813 76.888 57.428 76.4947C55.4547 76.076 53.4147 75.6427 51.5507 76.1413C49.76 76.62 48.2507 77.9867 46.7893 79.3067C45.3493 80.6093 43.8587 81.9573 42.5467 81.9573C41.2347 81.9573 39.744 80.6093 38.304 79.3067C36.8427 77.9867 35.3333 76.62 33.5427 76.1413C32.9467 75.9827 32.3347 75.9187 31.7107 75.9187C30.3827 75.9187 29.008 76.2093 27.6653 76.4947C25.812 76.888 23.896 77.2933 22.8387 76.6827C21.7493 76.0533 21.14 74.168 20.552 72.3453C19.9373 70.4427 19.3013 68.4747 17.96 67.1333C16.6187 65.792 14.6507 65.156 12.748 64.5413C10.9253 63.952 9.04 63.344 8.41066 62.2547C7.79866 61.1973 8.20533 59.2813 8.59866 57.428C9.01733 55.4547 9.44933 53.4147 8.952 51.552C8.47333 49.7613 7.10667 48.2507 5.78667 46.7893C4.484 45.3493 3.136 43.8587 3.136 42.5467C3.136 41.2347 4.484 39.744 5.78667 38.304C7.10667 36.8427 8.47333 35.3333 8.952 33.5427C9.44933 31.6787 9.01733 29.6387 8.59866 27.6653C8.20533 25.812 7.79866 23.896 8.41066 22.8387C9.04 21.7493 10.9253 21.1413 12.748 20.552C14.6507 19.9373 16.6187 19.3013 17.96 17.96C19.3013 16.6187 19.9373 14.6507 20.552 12.748C21.1413 10.9253 21.7493 9.03999 22.8387 8.41066C23.8947 7.79999 25.812 8.20532 27.6653 8.59866C29.6387 9.01732 31.68 9.44933 33.5427 8.952C35.3333 8.47333 36.8427 7.10666 38.304 5.78666C39.744 4.48399 41.2333 3.13599 42.5467 3.13599C43.8587 3.13599 45.3493 4.48399 46.7893 5.78666C48.2507 7.10666 49.76 8.47333 51.5507 8.952C53.4147 9.44933 55.4547 9.01732 57.428 8.59866C59.2813 8.20532 61.1973 7.79866 62.2547 8.41066C63.3427 9.03999 63.952 10.9253 64.5413 12.748C65.156 14.6507 65.792 16.6187 67.1333 17.96C68.4747 19.3013 70.4427 19.9373 72.3453 20.552C74.168 21.1413 76.0533 21.7493 76.6827 22.8387C77.2947 23.896 76.888 25.812 76.4947 27.6653C76.076 29.6387 75.644 31.6787 76.1413 33.5427C76.62 35.332 77.9867 36.8427 79.3067 38.304C80.6093 39.744 81.9573 41.2347 81.9573 42.5467C81.9573 43.8587 80.6093 45.3493 79.3067 46.7893C77.9867 48.2507 76.62 49.76 76.1413 51.5507C75.644 53.4147 76.076 55.4547 76.4947 57.428ZM81.6333 48.8933C83.2547 47.1 85.0933 45.0667 85.0933 42.5467C85.0933 40.0267 83.2547 37.9933 81.6333 36.2C80.5627 35.016 79.4547 33.7907 79.172 32.732C78.868 31.5947 79.2213 29.928 79.5627 28.316C80.0787 25.8827 80.612 23.368 79.3973 21.268C78.164 19.136 75.696 18.3387 73.3093 17.5667C71.76 17.0667 70.1587 16.5493 69.3507 15.7413C68.544 14.9347 68.0267 13.3333 67.5253 11.784C66.7547 9.39732 65.9573 6.92933 63.8253 5.69599C61.7253 4.48133 59.2093 5.01466 56.7773 5.53066C55.1653 5.87199 53.4987 6.22533 52.3613 5.92133C51.3027 5.63866 50.0773 4.53066 48.8933 3.45999C47.1 1.83866 45.0667 -5.10057e-06 42.5467 -5.10057e-06C40.0267 -5.10057e-06 37.9933 1.83866 36.2 3.45999C35.016 4.53066 33.7907 5.63866 32.732 5.92133C31.5947 6.22533 29.928 5.87199 28.316 5.53066C25.8827 5.01466 23.368 4.48133 21.268 5.69599C19.136 6.92933 18.3387 9.39732 17.568 11.784C17.0667 13.3333 16.5493 14.9347 15.7427 15.7413C14.9347 16.5493 13.3333 17.0667 11.784 17.5667C9.39733 18.3387 6.92933 19.136 5.696 21.268C4.48133 23.368 5.01466 25.8827 5.53066 28.316C5.872 29.928 6.22533 31.5947 5.92133 32.732C5.63866 33.7907 4.53066 35.016 3.46 36.2C1.83866 37.9933 0 40.0267 0 42.5467C0 45.0667 1.83866 47.1 3.46 48.8933C4.53066 50.0773 5.63866 51.3027 5.92133 52.3613C6.22533 53.4987 5.872 55.1653 5.53066 56.7773C5.01466 59.2107 4.48133 61.7253 5.696 63.8253C6.92933 65.9573 9.39733 66.7547 11.784 67.5267C13.3333 68.0267 14.9347 68.544 15.7413 69.352C16.5493 70.1587 17.0667 71.76 17.5667 73.3093C18.3387 75.696 19.136 78.164 21.268 79.3973C23.368 80.612 25.8827 80.0787 28.316 79.5627C29.928 79.2213 31.596 78.868 32.732 79.172C33.7907 79.4547 35.016 80.5627 36.2 81.6333C37.9933 83.2547 40.0267 85.0933 42.5467 85.0933C45.0667 85.0933 47.1 83.2547 48.8933 81.6333C50.0773 80.5627 51.3027 79.4547 52.3613 79.172C53.4987 78.868 55.1653 79.2213 56.7773 79.5627C59.2107 80.0787 61.7253 80.612 63.8253 79.3973C65.9573 78.164 66.7547 75.696 67.5253 73.3093C68.0267 71.76 68.544 70.1587 69.3507 69.352C70.1587 68.544 71.76 68.0267 73.3093 67.5267C75.696 66.7547 78.164 65.9573 79.3973 63.8253C80.612 61.7253 80.0787 59.2107 79.5627 56.7773C79.2213 55.1653 78.868 53.4987 79.172 52.3613C79.4547 51.3027 80.5627 50.0773 81.6333 48.8933Z" fill="#231815"/>
<path d="M18.4845 43.4734H20.8139C24.7712 43.4734 24.7712 45.312 24.7712 45.916C24.7712 46.5814 24.7712 48.6067 20.8139 48.6067H18.4845V43.4734ZM20.3845 40.76H18.4845V36.4867H20.4752C23.2525 36.4867 23.8205 37.3267 23.8205 38.5894C23.8205 39.1254 23.8205 40.76 20.3845 40.76ZM25.3565 41.8507C26.3899 41.0694 27.0112 39.788 27.0112 38.3174C27.0112 35.328 24.7872 33.6814 20.7472 33.6814H15.8152C15.5032 33.6814 15.2499 33.9347 15.2499 34.2467V50.8454C15.2499 51.1587 15.5032 51.412 15.8152 51.412H21.1072C25.3979 51.412 27.9592 49.3827 27.9592 45.984C27.9592 44.06 27.0072 42.5827 25.3565 41.8507Z" fill="#231815"/>
<path d="M41.0626 48.4939H33.9159V43.5872H39.6373C39.9493 43.5872 40.2026 43.3339 40.2026 43.0219V41.2352C40.2026 40.9232 39.9493 40.6699 39.6373 40.6699H33.9159V36.5992H40.8146C41.1279 36.5992 41.3813 36.3459 41.3813 36.0339V34.2472C41.3813 33.9352 41.1279 33.6819 40.8146 33.6819H31.2479C30.9346 33.6819 30.6813 33.9352 30.6813 34.2472V50.8459C30.6813 51.1579 30.9346 51.4112 31.2479 51.4112H41.0626C41.3746 51.4112 41.6279 51.1579 41.6279 50.8459V49.0592C41.6279 48.7472 41.3746 48.4939 41.0626 48.4939Z" fill="#231815"/>
<path d="M52.1704 41.4843L49.7944 40.4656C48.3491 39.8563 47.4024 39.3723 47.4024 38.227C47.4024 36.843 48.7104 36.351 49.9344 36.351C51.2011 36.351 52.3117 36.811 53.3277 37.759C53.4411 37.8643 53.5917 37.9176 53.7491 37.9096C53.9037 37.9003 54.0491 37.827 54.1477 37.707L55.2557 36.3736C55.4397 36.151 55.4277 35.827 55.2277 35.619C53.8637 34.2016 51.9344 33.387 49.9344 33.387C46.5797 33.387 44.1451 35.4803 44.1451 38.363C44.1451 40.479 45.3944 42.0843 47.8557 43.1336L50.2464 44.171C51.8851 44.907 52.6717 45.3163 52.6717 46.595C52.6717 47.919 51.5544 48.743 49.7531 48.743C48.2637 48.743 46.7104 48.039 45.5971 46.8616C45.4877 46.7456 45.3317 46.6843 45.1771 46.6843C45.0184 46.687 44.8677 46.755 44.7624 46.8736L43.4971 48.299C43.3011 48.519 43.3077 48.8523 43.5104 49.0656C45.1371 50.7683 47.3464 51.7056 49.7317 51.7056C53.3224 51.7056 55.9291 49.4896 55.9291 46.4363C55.9291 43.5136 54.0304 42.2936 52.1704 41.4843Z" fill="#231815"/>
<path d="M69.2777 33.6815H57.1337C56.8217 33.6815 56.5684 33.9348 56.5684 34.2468V36.0335C56.5684 36.3455 56.8217 36.5988 57.1337 36.5988H61.5884V50.8455C61.5884 51.1588 61.8417 51.4122 62.1537 51.4122H64.2577C64.5697 51.4122 64.823 51.1588 64.823 50.8455V36.5988H69.2777C69.5897 36.5988 69.843 36.3455 69.843 36.0335V34.2468C69.843 33.9348 69.5897 33.6815 69.2777 33.6815Z" fill="#231815"/>
</svg>
