<svg width="111" height="89" viewBox="0 0 111 89" fill="none" xmlns="http://www.w3.org/2000/svg">
<path d="M34.6386 22.8806C35.2506 22.2686 35.2506 21.2752 34.6386 20.6632C34.0253 20.0499 33.0333 20.0499 32.4213 20.6632L19.5947 33.4886C18.9827 34.1019 18.9827 35.0939 19.5947 35.7072C19.9013 36.0126 20.3027 36.1659 20.704 36.1659C21.1053 36.1659 21.5067 36.0126 21.812 35.7072L34.6386 22.8806Z" fill="#231815"/>
<path d="M41.8904 23.285L21.4824 43.693C20.8704 44.305 20.8704 45.2984 21.4824 45.9104C21.789 46.217 22.1904 46.369 22.5917 46.369C22.993 46.369 23.3944 46.217 23.701 45.9104L44.1077 25.5024C44.721 24.8904 44.721 23.897 44.1077 23.285C43.4957 22.673 42.5037 22.673 41.8904 23.285Z" fill="#231815"/>
<path d="M41.508 71.1893C25.568 71.1893 12.5987 58.2213 12.5987 42.28C12.5987 26.34 25.568 13.3707 41.508 13.3707C53.3813 13.3707 63.6053 20.568 68.0493 30.8266C67.6933 30.8266 67.3053 30.8346 66.8787 30.8466C66.6227 30.8546 66.3813 30.8613 66.268 30.86C64.524 30.8253 62.9333 30.9066 61.4027 31.1093C56.3373 31.78 52.0573 34.5533 49.6587 38.716C47.3667 42.6946 47.116 47.5346 48.968 51.9946C49.796 53.9866 51.0293 55.82 52.632 57.444C54.2347 59.068 56.052 60.324 58.0333 61.1773C59.424 61.7773 60.8547 62.1693 62.2867 62.3573C57.0267 67.8 49.656 71.1893 41.508 71.1893ZM84.26 31.728L79.4587 26.896C79.4053 26.8173 79.344 26.7413 79.2733 26.6706L78.9333 26.3253L78.7907 26.1813L78.848 26.124L100.997 4.25864C101.732 3.53464 102.703 3.13598 103.733 3.13598C103.743 3.13598 103.751 3.13598 103.76 3.13598C104.8 3.14265 105.776 3.55464 106.507 4.29464C107.237 5.03598 107.636 6.01598 107.629 7.05598C107.623 8.09732 107.211 9.07198 106.471 9.80398L84.26 31.728ZM78.6947 37.2213L77.7533 38.1506L77.708 38.196L72.2347 32.652L72.2813 32.6066L76.424 28.5173L76.5373 28.4053L81.1173 33.0146L82.028 33.932L81.436 34.516L78.6947 37.2213ZM69.7893 57.9213C69.64 58.0053 69.488 58.0813 69.336 58.1586C67.9093 58.8746 66.388 59.272 64.8253 59.3493C62.9973 59.4373 61.116 59.0906 59.2747 58.2973C57.6653 57.604 56.1827 56.576 54.864 55.24C53.5467 53.9053 52.5373 52.408 51.8653 50.7906C50.3667 47.1866 50.5493 43.4546 52.3773 40.2813C54.284 36.9706 57.724 34.7613 61.8147 34.2186C62.9813 34.064 64.1947 33.988 65.504 33.988C65.736 33.988 65.9693 33.9906 66.2067 33.996C66.3987 33.9986 66.652 33.992 66.972 33.9826C67.4453 33.968 68.5827 33.9333 69.1613 34.0026L69.228 34.0693L69.8307 34.68L69.444 34.836L63.004 37.4293C62.2013 37.7533 61.812 38.6666 62.136 39.4706C62.3813 40.0813 62.9693 40.4533 63.5907 40.4533C63.7853 40.4533 63.984 40.416 64.176 40.3386L70.0933 37.956L72.0467 37.1693C72.104 37.1453 72.1573 37.12 72.2107 37.0906L73.1707 38.064C73.1427 38.116 73.1147 38.1706 73.092 38.2266L70.296 44.916L69.8187 46.056C69.6133 46.5466 69.6787 47.0826 69.944 47.5013C70.1093 47.7626 70.3533 47.9786 70.6613 48.108C70.8587 48.1893 71.064 48.2293 71.2653 48.2293C71.8787 48.2293 72.4613 47.8666 72.7133 47.2653L73.372 45.6893L75.5507 40.476L76.2853 41.2186C76.3467 41.8 76.2973 42.936 76.2773 43.4093C76.264 43.7293 76.2533 43.9826 76.2547 44.1746C76.2653 45.7586 76.1733 47.1946 75.9733 48.5626C75.38 52.6453 73.1253 56.0573 69.7893 57.9213ZM3.14533 80.6213H27.8973H55.1187H79.8707C79.7027 83.308 77.276 85.4466 74.316 85.4466H8.7C5.74 85.4466 3.31333 83.308 3.14533 80.6213ZM108.739 2.09197C107.419 0.754642 105.659 0.0119849 103.78 -1.50651e-05C103.764 -1.50651e-05 103.749 -1.50651e-05 103.733 -1.50651e-05C101.872 -1.50651e-05 100.12 0.718647 98.7947 2.02665L77.408 23.1386C75.54 19.644 73.144 16.4066 70.2627 13.5253C62.5827 5.84531 52.3707 1.61465 41.508 1.61465C33.992 1.61465 26.6493 3.68265 20.2733 7.59332C19.5347 8.04532 19.304 9.01198 19.756 9.74931C20.2093 10.488 21.1747 10.7186 21.9133 10.2666C27.7947 6.65865 34.5707 4.75065 41.508 4.75065C56.1587 4.75065 68.8747 13.192 75.052 25.464L70.9133 29.5493C65.9787 18.196 54.656 10.2346 41.508 10.2346C23.8387 10.2346 9.46267 24.6106 9.46267 42.28C9.46267 59.9506 23.8387 74.3253 41.508 74.3253C51.6027 74.3253 60.62 69.632 66.4987 62.3146C68.18 62.056 69.8093 61.504 71.32 60.6586C73.4173 59.4866 75.1733 57.8386 76.4973 55.852C72.6107 65.8346 64.572 73.7573 54.512 77.4853H28.504C14.2013 72.1853 3.97867 58.404 3.97867 42.28C3.97867 35.3733 5.87067 28.6226 9.44933 22.7586C9.9 22.02 9.66667 21.0546 8.928 20.6026C8.18933 20.1533 7.224 20.3853 6.772 21.1253C2.89333 27.4813 0.842667 34.796 0.842667 42.28C0.842667 53.1426 5.072 63.3546 12.7533 71.0346C15.2907 73.572 18.104 75.7293 21.1253 77.4853H1.568C0.702667 77.4853 0 78.1866 0 79.0533V80.324C0 84.8773 3.90267 88.5826 8.7 88.5826H74.316C79.1133 88.5826 83.016 84.8773 83.016 80.324V79.0533C83.016 78.1866 82.3133 77.4853 81.448 77.4853H61.8907C64.912 75.7293 67.7267 73.572 70.2627 71.0346C77.944 63.3546 82.1733 53.1426 82.1733 42.28C82.1733 40.968 82.1107 39.6666 81.988 38.3773L85.3507 35.0586L108.673 12.036C110.011 10.716 110.753 8.95465 110.765 7.07732C110.777 5.19865 110.057 3.42797 108.739 2.09197Z" fill="#231815"/>
</svg>
