<svg width="29" height="23" viewBox="0 0 29 23" fill="none" xmlns="http://www.w3.org/2000/svg">
<path d="M27.3143 18.9735C27.3143 20.1335 26.3703 21.0761 25.2116 21.0761H4.47161C3.31294 21.0761 2.36894 20.1335 2.36894 18.9735V6.98813C2.36894 5.82813 3.31294 4.88546 4.47161 4.88546H8.91561C9.31561 4.88546 9.65028 4.58279 9.69294 4.18546C9.79828 3.18946 10.6663 2.40813 11.6676 2.40813H18.0143C19.0169 2.40813 19.8836 3.18946 19.9903 4.18546C20.0329 4.58279 20.3676 4.88546 20.7663 4.88546H25.2116C26.3703 4.88546 27.3143 5.82813 27.3143 6.98813V18.9735ZM25.2116 3.3228H21.3983C20.9409 1.8708 19.5916 0.845463 18.0143 0.845463H11.6676C10.0916 0.845463 8.74094 1.8708 8.28494 3.3228H4.47161C2.45161 3.3228 0.806274 4.96679 0.806274 6.98813V18.9735C0.806274 20.9948 2.45161 22.6388 4.47161 22.6388H25.2116C27.2316 22.6388 28.8769 20.9948 28.8769 18.9735V6.98813C28.8769 4.96679 27.2316 3.3228 25.2116 3.3228Z" fill="white"/>
<path d="M14.8416 17.5047C12.2016 17.5047 10.0536 15.3567 10.0536 12.7154C10.0536 10.0754 12.2016 7.92738 14.8416 7.92738C17.4816 7.92738 19.6296 10.0754 19.6296 12.7154C19.6296 15.3567 17.4816 17.5047 14.8416 17.5047ZM14.8416 6.36605C11.3403 6.36605 8.49097 9.21405 8.49097 12.7154C8.49097 16.218 11.3403 19.0674 14.8416 19.0674C18.343 19.0674 21.1923 16.218 21.1923 12.7154C21.1923 9.21405 18.343 6.36605 14.8416 6.36605Z" fill="white"/>
<path d="M5.37341 6.42921C4.58407 6.42921 3.94141 7.07055 3.94141 7.86121C3.94141 8.65188 4.58407 9.29321 5.37341 9.29321C6.16274 9.29321 6.80541 8.65188 6.80541 7.86121C6.80541 7.07055 6.16274 6.42921 5.37341 6.42921Z" fill="white"/>
</svg>
