<svg width="90" height="90" viewBox="0 0 90 90" fill="none" xmlns="http://www.w3.org/2000/svg">
<path d="M76.7227 52.4787C76.2213 52.9013 76.0373 53.592 76.2587 54.208L80.2613 65.304L68.6453 67.3773C67.9987 67.4933 67.4933 68 67.3773 68.6467L65.304 80.2613L54.208 76.26C53.592 76.0373 52.9013 76.2227 52.4787 76.7227L44.8653 85.7333L37.2533 76.7227C36.9493 76.364 36.508 76.1667 36.0547 76.1667C35.8773 76.1667 35.6973 76.1973 35.5227 76.26L24.428 80.2613L22.3533 68.6467C22.2387 68 21.732 67.4933 21.0853 67.3773L9.47067 65.304L13.472 54.208C13.6947 53.592 13.5093 52.9013 13.008 52.4787L3.99733 44.8667L13.008 37.2533C13.5093 36.8307 13.6947 36.14 13.472 35.524L9.47067 24.428L21.0853 22.3547C21.732 22.2387 22.2387 21.732 22.3533 21.0853L24.428 9.47067L35.5227 13.472C36.14 13.6947 36.8293 13.5093 37.2533 13.0093L44.8653 3.99733L52.4787 13.0093C52.9013 13.5093 53.5907 13.6947 54.208 13.472L65.304 9.47067L67.3773 21.0867C67.4933 21.7333 67.9987 22.2387 68.6453 22.3547L80.2613 24.428L76.2587 35.524C76.0373 36.14 76.2213 36.8307 76.7227 37.2533L85.7333 44.8667L76.7227 52.4787ZM89.176 43.668L79.58 35.5613L83.8413 23.7427C83.9987 23.308 83.956 22.8267 83.724 22.4267C83.4933 22.0253 83.0973 21.748 82.6427 21.6667L70.2733 19.4587L68.0653 7.08933C67.984 6.63466 67.7053 6.23867 67.3053 6.008C66.9053 5.776 66.424 5.73333 65.9893 5.88933L54.1707 10.152L46.064 0.555995C45.7653 0.203995 45.328 -4.82408e-06 44.8653 -4.82408e-06C44.404 -4.82408e-06 43.9653 0.203995 43.668 0.555995L35.5613 10.152L23.7427 5.88933C23.308 5.73333 22.8267 5.776 22.4253 6.008C22.0253 6.23867 21.748 6.63466 21.6667 7.08933L19.4587 19.4587L7.08934 21.6667C6.63467 21.748 6.23867 22.0253 6.00667 22.4267C5.776 22.8267 5.73333 23.308 5.88933 23.7427L10.152 35.5613L0.556 43.668C0.202666 43.9667 0 44.404 0 44.8667C0 45.328 0.202666 45.7653 0.556 46.064L10.152 54.1707L5.88933 65.9893C5.73333 66.424 5.776 66.9053 6.00667 67.3053C6.23867 67.7053 6.63467 67.984 7.08934 68.0653L19.4587 70.2733L21.6667 82.6427C21.748 83.0973 22.0253 83.4933 22.4253 83.7253C22.8267 83.956 23.308 83.9987 23.7427 83.8427L35.5613 79.58L43.668 89.176C43.9653 89.528 44.404 89.732 44.8653 89.732C45.328 89.732 45.7653 89.528 46.064 89.176L54.1707 79.58L65.9893 83.8427C66.4227 83.9987 66.9053 83.956 67.3053 83.7253C67.7053 83.4933 67.9827 83.0973 68.064 82.6427L70.2733 70.2733L82.6427 68.0653C83.0973 67.984 83.4933 67.7067 83.724 67.3053C83.956 66.9053 83.9987 66.424 83.8413 65.9893L79.58 54.1707L89.176 46.064C89.528 45.7653 89.732 45.328 89.732 44.8667C89.732 44.404 89.528 43.9667 89.176 43.668Z" fill="#231815"/>
<path d="M34.6019 36.0008H32.5205C32.2085 36.0008 31.9552 36.2542 31.9552 36.5662V42.9662H25.3525V36.5662C25.3525 36.2542 25.0992 36.0008 24.7872 36.0008H22.6832C22.3712 36.0008 22.1179 36.2542 22.1179 36.5662V53.1648C22.1179 53.4782 22.3712 53.7315 22.6832 53.7315H24.7872C25.0992 53.7315 25.3525 53.4782 25.3525 53.1648V45.9062H31.9552V53.1648C31.9552 53.4782 32.2085 53.7315 32.5205 53.7315H34.6019C34.9139 53.7315 35.1672 53.4782 35.1672 53.1648V36.5662C35.1672 36.2542 34.9139 36.0008 34.6019 36.0008Z" fill="#231815"/>
<path d="M50.2153 44.8206C50.2153 48.6126 48.502 51.0619 45.8513 51.0619C43.2007 51.0619 41.4873 48.6126 41.4873 44.8206C41.4873 41.0273 43.1593 38.6699 45.8513 38.6699C48.5433 38.6699 50.2153 41.0273 50.2153 44.8206ZM45.8513 35.7073C41.2793 35.7073 38.2087 39.3699 38.2087 44.8206C38.2087 50.3259 41.2793 54.0246 45.8513 54.0246C50.4233 54.0246 53.494 50.3259 53.494 44.8206C53.494 39.3699 50.4233 35.7073 45.8513 35.7073Z" fill="#231815"/>
<path d="M67.0484 36.0008H54.9044C54.5924 36.0008 54.3391 36.2542 54.3391 36.5662V38.3528C54.3391 38.6648 54.5924 38.9182 54.9044 38.9182H59.359V53.1648C59.359 53.4782 59.6124 53.7315 59.9244 53.7315H62.0284C62.3404 53.7315 62.5937 53.4782 62.5937 53.1648V38.9182H67.0484C67.3604 38.9182 67.6137 38.6648 67.6137 38.3528V36.5662C67.6137 36.2542 67.3604 36.0008 67.0484 36.0008Z" fill="#231815"/>
</svg>
