<svg width="90" height="76" viewBox="0 0 90 76" fill="none" xmlns="http://www.w3.org/2000/svg">
<path d="M67.9703 56.7325L61.737 59.1472H61.7383L67.9703 56.7325Z" fill="#231815"/>
<path d="M46.9194 25.0731C36.6767 25.0731 27.7207 23.7197 20.8487 22.1811C21.3207 22.1904 21.7941 22.1944 22.2674 22.1944C24.5541 22.1944 26.8434 22.0904 28.9634 21.8251C37.5367 20.7531 42.9074 20.2957 46.9194 20.2957C50.9314 20.2957 56.3021 20.7531 64.8754 21.8251C66.9967 22.0904 69.2834 22.1944 71.5714 22.1944C72.0527 22.1944 72.5327 22.1891 73.0114 22.1811C66.1407 23.7197 57.1834 25.0731 46.9194 25.0731ZM20.8327 12.0077C23.7461 9.46375 26.7581 6.83174 30.6021 4.93174C41.1621 -0.288255 45.3407 7.61041 45.5181 7.95841C45.9047 8.72908 46.8434 9.04375 47.6167 8.65975C47.7434 8.59708 47.8567 8.51708 47.9581 8.42641C47.9647 8.42108 47.9714 8.41441 47.9781 8.40775C48.0047 8.38375 48.0301 8.35975 48.0554 8.33308C48.0874 8.29975 48.1194 8.26375 48.1501 8.22508C48.1794 8.18775 48.2074 8.14908 48.2341 8.10774C48.2394 8.09974 48.2447 8.09175 48.2487 8.08375C48.2701 8.05041 48.2887 8.01841 48.3061 7.98375C48.3114 7.97575 48.3167 7.96775 48.3207 7.95841C48.4927 7.61975 52.6701 -0.292255 63.2367 4.93174C67.0807 6.83174 70.0927 9.46375 73.0061 12.0077C75.6607 14.3277 78.3741 16.6984 81.6967 18.4811C77.0127 18.9611 70.5021 19.3677 65.2647 18.7131C56.5554 17.6237 51.0687 17.1597 46.9194 17.1597C42.7701 17.1597 37.2834 17.6237 28.5741 18.7131C23.3354 19.3677 16.8274 18.9611 12.1421 18.4811C15.4647 16.6984 18.1781 14.3277 20.8327 12.0077ZM89.6794 19.1451C89.6794 19.1397 89.6781 19.1344 89.6781 19.1291C89.6727 19.0624 89.6634 18.9971 89.6501 18.9331C89.6487 18.9237 89.6474 18.9144 89.6447 18.9051C89.6314 18.8384 89.6114 18.7744 89.5887 18.7104C89.5847 18.6997 89.5807 18.6891 89.5767 18.6771C89.5527 18.6144 89.5247 18.5531 89.4927 18.4931C89.4874 18.4864 89.4834 18.4784 89.4794 18.4704C89.4461 18.4131 89.4101 18.3571 89.3687 18.3024C89.3661 18.2984 89.3634 18.2931 89.3594 18.2891C89.3167 18.2331 89.2701 18.1811 89.2194 18.1304C89.2141 18.1264 89.2101 18.1197 89.2061 18.1157C89.2021 18.1131 89.1994 18.1104 89.1967 18.1077C89.1461 18.0597 89.0927 18.0157 89.0367 17.9757C89.0274 17.9691 89.0181 17.9624 89.0087 17.9557C88.9527 17.9157 88.8941 17.8797 88.8327 17.8477C88.8261 17.8451 88.8181 17.8411 88.8114 17.8384C88.7514 17.8077 88.6887 17.7824 88.6261 17.7597C88.6207 17.7584 88.6154 17.7557 88.6101 17.7544C88.5621 17.7384 88.5141 17.7251 88.4647 17.7131C82.8207 16.4171 79.0554 13.1291 75.0687 9.64641C72.0047 6.96908 68.8367 4.20108 64.6261 2.11974C57.6941 -1.30692 52.8661 0.0530805 50.0367 1.79841C48.6781 2.63575 47.6501 3.63841 46.9194 4.50774C46.1887 3.63841 45.1607 2.63575 43.8021 1.79841C40.9727 0.0530805 36.1447 -1.30826 29.2127 2.11974C25.0021 4.20108 21.8341 6.96908 18.7701 9.64641C14.7834 13.1291 11.0181 16.4171 5.37407 17.7131C5.32474 17.7251 5.27674 17.7384 5.23007 17.7544C5.22341 17.7557 5.21674 17.7584 5.21007 17.7611C5.14874 17.7824 5.08874 17.8077 5.03007 17.8371C5.02207 17.8411 5.01274 17.8451 5.00474 17.8491C4.94474 17.8797 4.88607 17.9157 4.83007 17.9544C4.82074 17.9624 4.81141 17.9691 4.80074 17.9757C4.74607 18.0157 4.69274 18.0597 4.64207 18.1077C4.63941 18.1104 4.63674 18.1131 4.63274 18.1157C4.62874 18.1197 4.62474 18.1251 4.62074 18.1291C4.57007 18.1797 4.52207 18.2331 4.47941 18.2891C4.47674 18.2931 4.47407 18.2971 4.47007 18.3011C4.43007 18.3557 4.39274 18.4131 4.35941 18.4717C4.35541 18.4797 4.35141 18.4864 4.34741 18.4931C4.31407 18.5531 4.28607 18.6144 4.26207 18.6784C4.25807 18.6891 4.25408 18.6997 4.25008 18.7104C4.22741 18.7744 4.20741 18.8384 4.19408 18.9051C4.19141 18.9144 4.19007 18.9237 4.18874 18.9317C4.17541 18.9971 4.16607 19.0637 4.16074 19.1304C4.16074 19.1357 4.15941 19.1397 4.15941 19.1437C4.15674 19.1917 4.15541 19.2411 4.15674 19.2904C4.15808 19.3091 4.15941 19.3277 4.16074 19.3464C4.16207 19.3611 4.16341 19.3757 4.16474 19.3891C4.17007 19.4557 4.18074 19.5224 4.19541 19.5891C4.19808 19.5984 4.20074 19.6077 4.20341 19.6171C4.22074 19.6877 4.24074 19.7557 4.26874 19.8237C4.26874 19.8251 4.27007 19.8264 4.27007 19.8277C4.39541 20.1397 7.16607 26.9357 13.7861 33.7971C17.6887 37.8424 22.1261 41.0664 26.9741 43.3824C33.0354 46.2757 39.7447 47.7437 46.9194 47.7437C47.9661 47.7437 49.0181 47.7117 50.0461 47.6491C50.9101 47.5971 51.5687 46.8531 51.5154 45.9891C51.4634 45.1251 50.7247 44.4677 49.8554 44.5184C48.8914 44.5771 47.9034 44.6064 46.9194 44.6064C34.7901 44.6064 24.4301 40.2664 16.1274 31.7064C12.7181 28.1904 10.3714 24.6424 8.93941 22.1357C15.3087 24.3291 29.0954 28.2104 46.9194 28.2104C64.7394 28.2104 78.5261 24.3304 84.8954 22.1357C83.0141 25.4264 79.5541 30.5144 74.1741 34.9851C73.5087 35.5397 73.4167 36.5277 73.9701 37.1944C74.2807 37.5677 74.7274 37.7597 75.1781 37.7597C75.5314 37.7597 75.8861 37.6411 76.1794 37.3984C85.5981 29.5677 89.4114 20.2211 89.5701 19.8251C89.5981 19.7584 89.6181 19.6877 89.6354 19.6184C89.6381 19.6077 89.6407 19.5984 89.6434 19.5877C89.6581 19.5224 89.6674 19.4557 89.6741 19.3904C89.6754 19.3757 89.6767 19.3611 89.6781 19.3464C89.6794 19.3277 89.6807 19.3091 89.6821 19.2904C89.6834 19.2411 89.6821 19.1931 89.6794 19.1451Z" fill="#231815"/>
<path d="M57.2187 41.6032L64.2734 33.1765C64.5054 32.8979 64.7841 32.8339 64.9921 32.8339C65.0547 32.8339 65.1121 32.8392 65.1587 32.8472C65.3427 32.8779 65.7921 33.0072 66.0054 33.5579L72.9361 51.4445L66.3214 54.0072L62.0667 55.6565L57.0547 42.7205C56.9041 42.3312 56.9667 41.9032 57.2187 41.6032ZM64.2441 72.7352L62.4201 68.0299L65.7521 66.7392C66.5601 66.4259 66.9614 65.5179 66.6481 64.7099C66.3347 63.9019 65.4267 63.5005 64.6187 63.8139L61.2867 65.1045L60.0894 62.0152C59.6747 60.9459 60.1214 59.7739 61.0827 59.4019L61.7374 59.1472L67.9707 56.7325L75.2761 53.9019C75.7254 53.7285 76.2267 53.7525 76.6867 53.9725C77.1787 54.2072 77.564 54.6299 77.7707 55.1632L78.968 58.2539L70.4494 61.5539C69.6427 61.8672 69.2414 62.7752 69.5547 63.5832C69.8667 64.3912 70.7747 64.7925 71.5827 64.4792L80.1014 61.1792L84.5787 72.7352H64.2441ZM82.4587 58.5832L82.4574 58.5805L80.6947 54.0299C80.1974 52.7472 79.2534 51.7219 78.0374 51.1405C77.38 50.8285 76.6867 50.6645 75.992 50.6512L68.9294 32.4245C68.3761 30.9979 67.1574 29.9979 65.6694 29.7525C64.2267 29.5152 62.8067 30.0419 61.8681 31.1619L54.8134 39.5899C53.8294 40.7659 53.5667 42.3992 54.1307 43.8539L59.1707 56.8632C57.1347 58.1112 56.2374 60.7539 57.1641 63.1485L58.9281 67.7005L58.9294 67.7032L61.7067 74.8712C61.9414 75.4752 62.5214 75.8725 63.1694 75.8725H86.8694C87.3867 75.8725 87.8707 75.6179 88.1627 75.1899C88.4547 74.7632 88.5187 74.2205 88.3307 73.7379L82.4587 58.5832Z" fill="#231815"/>
<path d="M31.6667 57.1241C30.864 56.8281 30.044 56.5975 29.2414 56.3001C26.9774 55.4615 25.4761 53.7161 24.7534 51.0855C24.5067 50.1841 24.2987 49.2681 24.0787 48.3575C24.0054 48.0561 23.9014 47.7828 23.5934 47.7748C23.2601 47.7641 23.1521 48.0508 23.0747 48.3708C22.8521 49.2975 22.6454 50.2308 22.3881 51.1455C21.6587 53.7295 20.1734 55.4548 17.9441 56.2921C17.1574 56.5881 16.3534 56.8268 15.5574 57.0921C15.2921 57.1788 15.0294 57.2695 15.0347 57.6788C15.0414 58.0868 15.3134 58.1628 15.5734 58.2495C16.3574 58.5095 17.1454 58.7481 17.9214 59.0361C20.1841 59.8788 21.6841 61.6255 22.4041 64.2575C22.6534 65.1748 22.8627 66.1081 23.0921 67.0321C23.1641 67.3281 23.2574 67.6001 23.5841 67.5961C23.9107 67.5921 23.9961 67.3121 24.0681 67.0201C24.2721 66.1881 24.4694 65.3548 24.6787 64.5241C25.4027 61.6441 27.0067 59.7828 29.4881 58.9455C30.2161 58.7001 30.9507 58.4801 31.672 58.2108C31.8654 58.1375 32.02 57.9255 32.1934 57.7775C32.192 57.7015 32.192 57.6268 32.192 57.5508C32.0174 57.4055 31.8614 57.1961 31.6667 57.1241Z" fill="#231815"/>
<path d="M11.0974 41.721C10.5614 41.5237 10.0147 41.369 9.48007 41.1717C7.96807 40.6117 6.96673 39.4477 6.4854 37.6917C6.32007 37.0904 6.1814 36.4797 6.03473 35.8717C5.9854 35.6704 5.91607 35.489 5.71073 35.4824C5.48807 35.4757 5.41607 35.6677 5.3654 35.8797C5.21607 36.4984 5.07873 37.1224 4.90673 37.7317C4.42007 39.4557 3.4294 40.6077 1.9414 41.1664C1.41607 41.3637 0.880067 41.5224 0.348066 41.6997C0.172066 41.7584 -0.00393308 41.8184 6.69158e-05 42.0904C0.00540025 42.3637 0.1854 42.4144 0.360066 42.4717C0.882733 42.645 1.4094 42.8037 1.92673 42.997C3.43607 43.5597 4.4374 44.7237 4.9174 46.481C5.08407 47.093 5.22407 47.7144 5.37607 48.3317C5.42407 48.529 5.48673 48.7104 5.70407 48.7077C5.92273 48.705 5.98007 48.5184 6.02807 48.3237C6.16407 47.769 6.29607 47.213 6.43473 46.6584C6.91873 44.737 7.98807 43.4957 9.64407 42.9357C10.1294 42.773 10.6201 42.625 11.1014 42.445C11.2294 42.397 11.3334 42.2557 11.4481 42.157C11.4481 42.1064 11.4481 42.0557 11.4481 42.0064C11.3321 41.909 11.2267 41.769 11.0974 41.721Z" fill="#231815"/>
</svg>
