<svg width="30" height="30" viewBox="0 0 30 30" fill="none" xmlns="http://www.w3.org/2000/svg">
<path d="M23.6045 15.6327C23.7085 15.7367 23.8445 15.7873 23.9805 15.7873C24.1165 15.7873 24.2525 15.7367 24.3565 15.6327C24.5645 15.4247 24.5645 15.0887 24.3565 14.8807L20.9539 11.4767C20.7445 11.2687 20.4099 11.2687 20.2005 11.4767C19.9939 11.6847 19.9939 12.0207 20.2005 12.2287L23.6045 15.6327Z" fill="white"/>
<path d="M18.441 12.1717C18.233 11.9637 17.897 11.9637 17.689 12.1717C17.481 12.3797 17.481 12.7157 17.689 12.9237L23.1036 18.3397C23.2076 18.4437 23.3436 18.4944 23.4796 18.4944C23.6156 18.4944 23.7516 18.4437 23.857 18.3397C24.0636 18.1317 24.0636 17.7957 23.857 17.5877L18.441 12.1717Z" fill="white"/>
<path d="M26.016 17.2941C26.016 21.4608 22.6266 24.8501 18.46 24.8501C14.2946 24.8501 10.9053 21.4608 10.9053 17.2941C10.9053 13.1274 14.2946 9.73808 18.46 9.73808C22.6266 9.73808 26.016 13.1274 26.016 17.2941ZM9.84131 17.2941C9.84131 22.0461 13.708 25.9128 18.46 25.9128C23.2133 25.9128 27.08 22.0461 27.08 17.2941C27.08 12.5421 23.2133 8.67542 18.46 8.67542C13.708 8.67542 9.84131 12.5421 9.84131 17.2941Z" fill="white"/>
<path d="M2.27629 1.54531C2.27629 1.38131 2.35762 1.23597 2.49229 1.15464C2.56296 1.11331 2.70829 1.05598 2.87896 1.14931L6.46162 3.12664C6.60162 3.20264 6.68829 3.35464 6.68829 3.52264V8.72531H2.27629V1.54531ZM1.72696 9.82397H7.23629C7.54029 9.82397 7.78562 9.57731 7.78562 9.27464V3.52264C7.78562 2.95598 7.48162 2.43464 6.99229 2.16531L3.40962 0.187975C2.94296 -0.0693585 2.39096 -0.0626914 1.93362 0.209309C1.46029 0.487975 1.17896 0.987975 1.17896 1.54531V9.27464C1.17896 9.57731 1.42429 9.82397 1.72696 9.82397Z" fill="white"/>
<path d="M12.6413 26.5024H9.328V23.2397C10.1853 24.5504 11.3173 25.6624 12.6413 26.5024ZM6.76533 28.7117H2.56267C1.756 28.7117 1.09733 27.8757 1.09733 26.849V17.481H2.168C2.472 17.481 2.71733 17.2357 2.71733 16.933C2.71733 16.9317 2.71733 16.9317 2.71733 16.9317C2.71733 16.629 2.472 16.3824 2.168 16.3824H1.09733V12.4384C1.09733 11.9917 1.42667 11.6304 1.82933 11.6304H7.49867C7.90267 11.6304 8.23067 11.9917 8.23067 12.4384V13.5477V16.3824H7.6H4.24667C3.94267 16.3824 3.69733 16.629 3.69733 16.9317C3.69733 16.9317 3.69733 16.9317 3.69733 16.933C3.69733 17.2357 3.94267 17.481 4.24667 17.481H7.56267H8.23067V21.041V26.5024H7.86267C7.55867 26.5024 7.31333 26.749 7.31333 27.0517V27.389C7.31333 27.7544 7.41067 28.0957 7.568 28.4037C7.33733 28.597 7.06267 28.7117 6.76533 28.7117ZM27.1667 28.6157H9.75467C9.45333 28.6157 9.18133 28.5157 8.95733 28.3624C8.788 28.2464 8.65467 28.0984 8.56 27.9237C8.50533 27.821 8.45333 27.717 8.43067 27.601H8.66933H9.23467H14.9267H21.9947H28.4893C28.3787 28.177 27.828 28.6157 27.1667 28.6157ZM29.0587 26.5024H24.28C27.3307 24.5677 29.3667 21.1677 29.3667 17.2944C29.3667 15.2877 28.8173 13.325 27.776 11.6197C27.624 11.369 27.2947 11.2917 27.0453 11.4424C26.7947 11.5957 26.716 11.9224 26.8693 12.1744C27.8067 13.7117 28.3027 15.4824 28.3027 17.2944C28.3027 21.5077 25.6373 25.101 21.908 26.5024H15.0133C12.4267 25.5304 10.356 23.5064 9.328 20.9477V16.9317V13.641C10.7827 10.0184 14.324 7.45036 18.46 7.45036C20.28 7.45036 22.056 7.9517 23.5987 8.89836C23.848 9.05303 24.1773 8.97303 24.3307 8.7237C24.484 8.47303 24.4053 8.14503 24.1547 7.9917C22.4453 6.94236 20.476 6.38769 18.46 6.38769C14.5187 6.38769 11.0693 8.4957 9.15333 11.637C8.86133 10.9864 8.232 10.5304 7.49867 10.5304H1.82933C0.82 10.5304 0 11.3864 0 12.4384V16.9317V26.849C0 28.481 1.14933 29.8104 2.56267 29.8104H6.76533C7.33333 29.8104 7.85333 29.5904 8.27733 29.2277C8.68933 29.529 9.19733 29.7144 9.75467 29.7144H27.1667C28.5133 29.7144 29.608 28.6717 29.608 27.389V27.0517C29.608 26.749 29.3627 26.5024 29.0587 26.5024Z" fill="white"/>
</svg>
