<svg width="20" height="20" viewBox="0 0 20 20" fill="none" xmlns="http://www.w3.org/2000/svg">
<path d="M15.1619 10.0402C15.2286 10.1069 15.3166 10.1415 15.4032 10.1415C15.4912 10.1415 15.5779 10.1069 15.6446 10.0402C15.7779 9.90685 15.7779 9.69085 15.6446 9.55752L13.4579 7.37085C13.3259 7.23752 13.1086 7.23752 12.9752 7.37085C12.8419 7.50418 12.8419 7.72018 12.9752 7.85352L15.1619 10.0402Z" fill="#231815"/>
<path d="M11.8444 7.81764C11.7111 7.68431 11.4951 7.68431 11.3617 7.81764C11.2284 7.95098 11.2284 8.16698 11.3617 8.30031L14.8404 11.7776C14.9071 11.8443 14.9951 11.879 15.0817 11.879C15.1697 11.879 15.2577 11.8443 15.3231 11.7776C15.4564 11.6443 15.4564 11.4283 15.3231 11.295L11.8444 7.81764Z" fill="#231815"/>
<path d="M16.7095 11.1069C16.7095 13.7842 14.5322 15.9602 11.8575 15.9602C9.18287 15.9602 7.00553 13.7842 7.00553 11.1069C7.00553 8.43221 9.18287 6.25488 11.8575 6.25488C14.5322 6.25488 16.7095 8.43221 16.7095 11.1069ZM6.32153 11.1069C6.32153 14.1602 8.8042 16.6455 11.8575 16.6455C14.9109 16.6455 17.3935 14.1602 17.3935 11.1069C17.3935 8.05355 14.9109 5.57088 11.8575 5.57088C8.8042 5.57088 6.32153 8.05355 6.32153 11.1069Z" fill="#231815"/>
<path d="M18.8636 11.1069C18.8636 9.81755 18.5102 8.55755 17.8409 7.46289C17.7436 7.30289 17.5329 7.24955 17.3716 7.34955C17.2116 7.44689 17.1596 7.65755 17.2596 7.82022C17.8622 8.80689 18.1796 9.94289 18.1796 11.1069C18.1796 13.8296 16.4422 16.1322 14.0249 17.0216H15.5756C17.5436 15.7802 18.8636 13.6016 18.8636 11.1069Z" fill="#231815"/>
<path d="M5.9923 8.78034C6.92163 6.44434 9.19363 4.78568 11.8576 4.78568C13.0256 4.78568 14.1656 5.10701 15.1576 5.71501C15.3136 5.81234 15.5283 5.76301 15.6283 5.60301C15.727 5.44168 15.6776 5.23234 15.515 5.13368C14.415 4.45768 13.151 4.10034 11.8576 4.10034C9.32163 4.10034 7.1163 5.46834 5.88696 7.49234C5.9523 7.64434 5.9923 7.81101 5.9923 7.98834V8.78034Z" fill="#231815"/>
<path d="M8.1397 17.0215H9.69037C8.0037 16.4015 6.65437 15.0988 5.9917 13.4335V14.9162C6.54637 15.7655 7.28103 16.4802 8.1397 17.0215Z" fill="#231815"/>
<path d="M1.11017 0.992459C1.11017 0.509792 1.6075 0.201792 2.0195 0.428459L4.32217 1.69913C4.5235 1.80979 4.64884 2.02713 4.64884 2.26313V5.95646H1.11017V0.992459ZM1.11017 6.30979H4.64884C4.84217 6.30979 5.00217 6.14979 5.00217 5.95646V2.26179C5.00217 1.89779 4.80617 1.56313 4.49284 1.39113L2.1915 0.121792C1.89017 -0.0475411 1.5355 -0.0368748 1.2435 0.132459C0.939503 0.313792 0.756836 0.632459 0.756836 0.992459V5.95646C0.756836 6.14979 0.915503 6.30979 1.11017 6.30979Z" fill="#231815"/>
<path d="M4.2946 5.60276H1.46393V0.992093C1.46393 0.840093 1.5586 0.765426 1.59993 0.741426C1.6506 0.713426 1.74126 0.682759 1.84926 0.737426L4.15193 2.00943C4.24126 2.05743 4.2946 2.15343 4.2946 2.26276V5.60276ZM4.64926 2.26276C4.64926 2.02676 4.5226 1.81076 4.32126 1.69876L2.01993 0.429426C1.60793 0.201426 1.1106 0.510759 1.1106 0.992093V5.95609H4.64926V2.26276Z" fill="#231815"/>
<path d="M0.353333 10.5212V7.98788C0.353333 7.50655 0.721333 7.11588 1.176 7.11588H4.81733C5.26133 7.11588 5.61733 7.49055 5.63333 7.95722C5.71467 7.79988 5.79467 7.64255 5.88667 7.49188C5.704 7.06388 5.29467 6.76255 4.81733 6.76255H1.176C0.528 6.76255 0 7.31322 0 7.98922V10.8745C0 10.6812 0.158667 10.5212 0.353333 10.5212Z" fill="#231815"/>
<path d="M5.63965 10.5217C5.83298 10.523 5.99165 10.6817 5.99165 10.875V8.78034C5.82765 9.19367 5.71432 9.62967 5.63965 10.0817V10.5217Z" fill="#231815"/>
<path d="M5.63961 7.98847V10.0805C5.71428 9.6298 5.82761 9.1938 5.99161 8.78047V7.98847C5.99161 7.81113 5.95161 7.64447 5.88628 7.49247C5.79561 7.64313 5.71428 7.79913 5.63428 7.9578C5.63428 7.96847 5.63961 7.9778 5.63961 7.98847Z" fill="#231815"/>
<path d="M5.63873 10.5212L5.64006 10.0812C5.61606 10.2252 5.60939 10.3746 5.59473 10.5212H5.63873Z" fill="#231815"/>
<path d="M0.706849 10.5212V7.98922C0.706849 7.70122 0.917516 7.46922 1.17618 7.46922H4.81752C5.07618 7.46922 5.28552 7.70122 5.28552 7.98922V8.76122C5.38418 8.48388 5.50152 8.21855 5.63352 7.95722C5.61752 7.49055 5.26152 7.11588 4.81752 7.11588H1.17618C0.721516 7.11588 0.353516 7.50655 0.353516 7.98788V10.5212H0.706849Z" fill="#231815"/>
<path d="M5.28516 10.5213H5.59582C5.60916 10.3746 5.61582 10.2253 5.63982 10.0813V7.98793C5.63982 7.97726 5.63449 7.96793 5.63449 7.95726C5.50116 8.2186 5.38516 8.48393 5.28516 8.76126V10.5213Z" fill="#231815"/>
<path d="M5.99214 17.0215V14.9162C5.8588 14.7095 5.75214 14.4868 5.64014 14.2668V17.0215H5.99214Z" fill="#231815"/>
<path d="M5.05649 18.5051C4.84982 18.6731 4.61515 18.7944 4.34715 18.7944H1.64716C0.932488 18.7944 0.353822 18.0997 0.353822 17.2437V11.2291C0.159155 11.2291 0.000488281 11.0691 0.000488281 10.8744V17.2437C0.000488281 18.2931 0.739155 19.1477 1.64582 19.1477H4.34582C4.71249 19.1477 5.03515 18.9811 5.30849 18.7451C5.21382 18.6731 5.13249 18.5957 5.05649 18.5051Z" fill="#231815"/>
<path d="M5.63965 11.2282V12.1322C5.71432 12.5842 5.82765 13.0202 5.99165 13.4336V10.8749C5.99165 11.0682 5.83298 11.2269 5.63965 11.2282Z" fill="#231815"/>
<path d="M5.63965 14.2665C5.75165 14.4865 5.85832 14.7092 5.99165 14.9159V13.4332C5.82765 13.0199 5.71432 12.5839 5.63965 12.1319V14.2665Z" fill="#231815"/>
<path d="M2.72785 10.5212C2.53451 10.5212 2.37451 10.6812 2.37451 10.8745H2.72785H4.87451C4.87851 10.7545 4.90118 10.6399 4.91051 10.5212H2.72785Z" fill="#231815"/>
<path d="M1.39321 10.5212H0.706543V10.8745H1.39321H1.74654C1.74654 10.6812 1.58654 10.5212 1.39321 10.5212Z" fill="#231815"/>
<path d="M4.875 10.875H5.28433V10.5217H4.911C4.90033 10.6403 4.879 10.755 4.875 10.875Z" fill="#231815"/>
<path d="M5.63965 10.5217V10.875V11.2283C5.83298 11.227 5.99165 11.0683 5.99165 10.875C5.99165 10.6817 5.83298 10.523 5.63965 10.5217Z" fill="#231815"/>
<path d="M0.353333 11.2285V10.8752V10.5218C0.158667 10.5218 0 10.6805 0 10.8752C0 11.0685 0.158667 11.2285 0.353333 11.2285Z" fill="#231815"/>
<path d="M0.706849 10.8749V10.5216H0.353516V10.8749H0.706849Z" fill="#231815"/>
<path d="M5.59533 10.5212C5.58466 10.6399 5.56333 10.7545 5.55933 10.8745H5.63933V10.5212H5.59533Z" fill="#231815"/>
<path d="M5.28516 10.875H5.55982C5.56382 10.755 5.58382 10.639 5.59582 10.5217H5.28516V10.875Z" fill="#231815"/>
<path d="M5.28516 17.0215H5.63982V14.2669C5.50516 14.0029 5.38649 13.7335 5.28516 13.4522V17.0215Z" fill="#231815"/>
<path d="M2.37427 10.8749C2.37427 11.0683 2.53427 11.2283 2.7276 11.2283H4.8636C4.8636 11.1869 4.8516 11.1483 4.8516 11.1069C4.8516 11.0269 4.87293 10.9536 4.8756 10.8749H2.7276H2.37427Z" fill="#231815"/>
<path d="M4.34587 18.4398H1.64587C1.12721 18.4398 0.707205 17.9038 0.707205 17.2438V11.2278H1.39387C1.58721 11.2278 1.74721 11.0692 1.74721 10.8745H1.39387H0.707205C0.707205 11.0692 0.547206 11.2278 0.352539 11.2278V17.2438C0.352539 18.0998 0.932539 18.7945 1.64587 18.7945H4.34587C4.61521 18.7945 4.84987 18.6732 5.05654 18.5052C4.98187 18.4158 4.90721 18.3265 4.85521 18.2212C4.70721 18.3478 4.53787 18.4398 4.34587 18.4398Z" fill="#231815"/>
<path d="M5.54443 11.1891C5.54843 11.5118 5.58843 11.8238 5.64043 12.1331V11.2278C5.6031 11.2278 5.57777 11.1998 5.54443 11.1891Z" fill="#231815"/>
<path d="M5.28514 10.8749H4.87581C4.87314 10.9536 4.85181 11.0269 4.85181 11.1069C4.85181 11.1483 4.86381 11.1869 4.86381 11.2283H5.28514V13.4523C5.38647 13.7336 5.50514 14.0029 5.63981 14.2669V12.1323C5.58914 11.8243 5.54914 11.5109 5.54381 11.1896C5.40114 11.1443 5.28514 11.0323 5.28514 10.8749Z" fill="#231815"/>
<path d="M5.53613 11.1069C5.53613 11.1349 5.54413 11.1616 5.54413 11.1896C5.57747 11.2002 5.60147 11.2282 5.6388 11.2282H5.64013V10.8749H5.56013C5.55613 10.9536 5.53613 11.0269 5.53613 11.1069Z" fill="#231815"/>
<path d="M0.706849 10.8749H0.353516V11.2283C0.546849 11.2283 0.706849 11.0683 0.706849 10.8749Z" fill="#231815"/>
<path d="M5.54431 11.1891C5.54431 11.1611 5.53631 11.1344 5.53631 11.1064C5.53631 11.0278 5.55631 10.9531 5.55898 10.8744H5.28564C5.28564 11.0318 5.40164 11.1438 5.54431 11.1891Z" fill="#231815"/>
<path d="M18.664 17.0215H15.576C15.3667 17.1535 15.148 17.2655 14.9253 17.3748H18.664V17.5922C18.664 18.2188 18.1173 18.7322 17.4493 18.7322H6.26533C5.99866 18.7322 5.76533 18.6335 5.56399 18.4962C5.48799 18.5935 5.39999 18.6668 5.30933 18.7455C5.57599 18.9468 5.89999 19.0868 6.26666 19.0868H17.4493C18.3147 19.0868 19.0173 18.4148 19.0173 17.5922V17.3748C19.0173 17.1815 18.8587 17.0215 18.664 17.0215Z" fill="#231815"/>
<path d="M12.387 17.3749C12.9577 17.3269 13.507 17.2122 14.0257 17.0216H9.6897C10.2084 17.2122 10.7577 17.3269 11.3284 17.3749H12.387Z" fill="#231815"/>
<path d="M5.99239 17.2439C5.99239 17.2906 5.97239 17.3292 5.96973 17.3746H8.78973C8.56839 17.2652 8.34839 17.1532 8.14039 17.0212H5.99239V17.2439Z" fill="#231815"/>
<path d="M8.79007 17.3749H11.3287C10.7567 17.3269 10.2074 17.2122 9.69007 17.0216H8.1394C8.3474 17.1536 8.5674 17.2656 8.79007 17.3749Z" fill="#231815"/>
<path d="M14.9251 17.3749C15.1478 17.2656 15.3678 17.1536 15.5758 17.0216H14.0251C13.5078 17.2122 12.9585 17.3269 12.3865 17.3749H14.9251Z" fill="#231815"/>
<path d="M5.28502 17.0215H5.05169C4.85702 17.0215 4.69702 17.1815 4.69702 17.3748V17.5922C4.69702 17.8188 4.75969 18.0282 4.85569 18.2215C4.95969 18.1335 5.04635 18.0242 5.11569 17.8908C5.08635 17.7935 5.05035 17.6975 5.05035 17.5922V17.3748H5.26369C5.26769 17.3295 5.28502 17.2908 5.28502 17.2442V17.0215Z" fill="#231815"/>
<path d="M5.99234 17.2439V17.0212H5.64034V17.2439C5.64034 17.2906 5.62034 17.3292 5.61768 17.3746H5.96968C5.97234 17.3292 5.99234 17.2906 5.99234 17.2439Z" fill="#231815"/>
<path d="M5.56355 18.4959C5.46488 18.4279 5.38088 18.3506 5.30755 18.2573C5.23422 18.3573 5.14755 18.4306 5.05688 18.5053C5.13155 18.5959 5.21422 18.6733 5.30888 18.7453C5.39955 18.6666 5.48888 18.5933 5.56355 18.4959Z" fill="#231815"/>
<path d="M5.63967 17.0215H5.28501V17.2442C5.28501 17.2908 5.26767 17.3295 5.26367 17.3748H5.61701C5.62101 17.3295 5.63967 17.2908 5.63967 17.2442V17.0215Z" fill="#231815"/>
<path d="M4.85596 18.2219C4.90796 18.3259 4.98262 18.4152 5.05596 18.5045C5.14796 18.4312 5.23462 18.3565 5.30662 18.2579C5.21996 18.1472 5.15596 18.0259 5.11462 17.8912C5.04529 18.0245 4.95996 18.1339 4.85596 18.2219Z" fill="#231815"/>
<path d="M18.299 17.7288C18.2283 18.0981 17.8737 18.3794 17.4497 18.3794H6.26566C6.06432 18.3794 5.88299 18.3074 5.73632 18.2008C5.68299 18.3034 5.63232 18.4074 5.56299 18.4954C5.76432 18.6341 5.99899 18.7314 6.26566 18.7314H17.4497C18.1177 18.7314 18.6643 18.2194 18.6643 17.5914V17.3754H14.9257C14.6417 17.5141 14.3483 17.6288 14.0443 17.7288H18.299Z" fill="#231815"/>
<path d="M5.90723 17.7287H9.67123C9.36723 17.6287 9.07389 17.5141 8.78989 17.3754H5.96989C5.96189 17.4981 5.93523 17.6127 5.90723 17.7287Z" fill="#231815"/>
<path d="M12.387 17.3749H11.3284C11.5057 17.3895 11.6764 17.4282 11.8577 17.4282C12.039 17.4282 12.2097 17.3895 12.387 17.3749Z" fill="#231815"/>
<path d="M11.8576 17.4284C11.6762 17.4284 11.5056 17.3897 11.3282 17.375H8.78955C9.07355 17.515 9.36688 17.6284 9.67088 17.7284H14.0442C14.3482 17.6284 14.6416 17.515 14.9256 17.375H12.3869C12.2096 17.3897 12.0389 17.4284 11.8576 17.4284Z" fill="#231815"/>
<path d="M5.05029 17.5917C5.05029 17.6971 5.08629 17.7931 5.11563 17.8904C5.19429 17.7371 5.24763 17.5664 5.26363 17.3744H5.05029V17.5917Z" fill="#231815"/>
<path d="M5.96962 17.3749H5.61762C5.60828 17.4976 5.58962 17.6162 5.55762 17.7282H5.90695C5.93495 17.6136 5.96162 17.4976 5.96962 17.3749Z" fill="#231815"/>
<path d="M5.51597 17.8867C5.46264 18.024 5.38931 18.1453 5.30664 18.2573C5.37997 18.3507 5.46397 18.428 5.56397 18.496C5.63197 18.408 5.68264 18.304 5.73597 18.2013C5.62664 18.1227 5.57331 18.0053 5.51597 17.8867Z" fill="#231815"/>
<path d="M5.41632 17.7288H5.55766C5.58966 17.6154 5.60832 17.4981 5.61766 17.3754H5.26432C5.24699 17.5661 5.19499 17.7381 5.11499 17.8901C5.15632 18.0261 5.21899 18.1474 5.30699 18.2581C5.38966 18.1461 5.46299 18.0234 5.51632 17.8861C5.48832 17.8301 5.42832 17.7914 5.41632 17.7288Z" fill="#231815"/>
</svg>
