<svg width="17" height="21" viewBox="0 0 17 21" fill="none" xmlns="http://www.w3.org/2000/svg">
<path d="M8.61909 3.75758V1.05758C8.61909 0.284246 7.80442 -0.159752 7.22842 0.298914L5.21909 1.89625L2.77242 3.84025C2.29909 4.21625 2.29909 4.98025 2.77242 5.35758L5.21909 7.30158L7.22842 8.89891C7.80442 9.35758 8.61909 8.91225 8.61909 8.14025V5.46158C12.1898 5.51625 15.0804 8.43091 15.0804 12.0136C15.0804 15.6336 12.1351 18.5789 8.51775 18.5789C4.89776 18.5789 1.95242 15.6336 1.95242 12.0136C1.95242 11.5442 1.57109 11.1616 1.10042 11.1616C0.631089 11.1616 0.249756 11.5442 0.249756 12.0136C0.249756 16.5736 3.95909 20.2829 8.51775 20.2829C13.0764 20.2829 16.7844 16.5736 16.7844 12.0136C16.7844 7.48958 13.1311 3.81358 8.61909 3.75758Z" fill="#231815"/>
</svg>
