 <svg width="15" height="14" viewBox="0 0 15 14" fill="none" xmlns="http://www.w3.org/2000/svg">
<path d="M12.7883 6.44277H12.787L12.5443 6.98944L12.3217 6.44411L11.775 6.20011L12.3203 5.97744L12.5643 5.43077L12.787 5.97611L13.3337 6.22011L12.7883 6.44277ZM14.4603 4.43744C14.3417 3.62144 13.9603 2.95877 13.2097 2.57744C12.1817 2.05611 11.1963 2.25477 10.263 2.84277C9.70701 3.19211 9.29901 3.69744 8.93234 4.23077C8.10434 5.43211 7.46167 6.73611 6.83767 8.04944C6.80967 8.10944 6.77767 8.16677 6.74701 8.22544C6.74167 8.13077 6.75501 8.04411 6.77101 7.95877C6.97367 6.79344 7.15234 5.62411 7.16034 4.43877C7.16834 3.36811 6.92167 2.38677 6.17101 1.57477C5.36167 0.696107 4.08301 0.510773 3.08034 1.15477C2.35901 1.61744 1.91767 2.28811 1.71234 3.11077C1.49767 3.97211 1.55634 4.84544 1.64567 5.71477C1.80301 7.26277 2.10301 8.78811 2.44834 10.3041C2.56701 10.8268 2.68834 11.3481 2.81234 11.8854C1.71767 12.2374 0.752339 12.7588 0.0136719 13.5841H11.527C10.843 12.8174 9.95101 12.3134 8.93767 11.9508C9.00167 11.8948 9.03901 11.8614 9.07634 11.8268C9.88167 11.0974 10.7017 10.3801 11.491 9.63211C12.3457 8.82277 13.1683 7.97877 13.819 6.98944C14.3257 6.21611 14.595 5.37211 14.4603 4.43744Z" fill="#231815"/>
</svg>
