<svg width="16" height="13" viewBox="0 0 16 13" fill="none" xmlns="http://www.w3.org/2000/svg">
<path d="M13.8694 4.85459C13.5174 4.86526 13.224 4.58926 13.2134 4.23726C13.212 4.20126 13.2147 4.16526 13.2187 4.13059C13.2667 4.32926 13.4481 4.47459 13.6614 4.46793C13.9041 4.45993 14.0947 4.25726 14.088 4.01459C14.0814 3.80259 13.9254 3.62926 13.7241 3.59459C13.7587 3.58793 13.7934 3.58259 13.8307 3.58259C14.1814 3.57059 14.4747 3.84793 14.4867 4.19859C14.4974 4.55059 14.2214 4.84393 13.8694 4.85459ZM15.2974 2.92926C15.2681 2.70926 15.2174 2.49593 15.1481 2.29726C15.0107 1.90793 14.8041 1.57193 14.5361 1.29993C14.1267 0.883927 13.6294 0.65326 13.0587 0.615927C12.9067 0.606593 12.748 0.61326 12.588 0.635927C12.324 0.673261 12.0667 0.750594 11.8214 0.866594C11.3601 1.08393 10.9641 1.41059 10.6454 1.83726C10.4521 2.09326 10.2894 2.39059 10.1441 2.74526C10.0321 3.02259 9.93338 3.33059 9.83472 3.71726C9.72938 4.12793 9.63872 4.56259 9.54672 5.08926C9.49072 5.40926 9.43872 5.73059 9.39072 6.05193C9.34805 6.33726 9.31072 6.62393 9.27338 6.91193C9.24405 7.13593 9.21738 7.35993 9.19072 7.58393C9.16538 7.80926 9.14005 8.03593 9.11605 8.26126C9.09472 8.45193 9.07605 8.64393 9.05738 8.83593C9.03872 9.02126 9.02138 9.20659 9.00538 9.39193L8.96405 9.86659C8.59205 9.81993 8.22005 9.79593 7.85605 9.79593C7.49605 9.79726 7.12272 9.81726 6.75072 9.86126L6.68938 9.16126C6.67605 9.01059 6.66272 8.85993 6.64805 8.70926C6.63072 8.52793 6.61205 8.34793 6.59205 8.15593C6.57605 8.00526 6.56005 7.85326 6.54272 7.70259C6.51872 7.48926 6.49338 7.27726 6.46805 7.06393C6.44538 6.88393 6.42405 6.70393 6.40005 6.52393C6.37338 6.32926 6.34538 6.13593 6.31738 5.94126L6.31205 5.90126C6.28272 5.71193 6.25472 5.52259 6.22272 5.33459C6.17738 5.07326 6.13072 4.81326 6.08138 4.55326C6.00538 4.15459 5.92138 3.79193 5.82405 3.44259C5.72672 3.09326 5.61872 2.79193 5.49338 2.52126C5.30805 2.11726 5.08672 1.78659 4.81738 1.50793C4.50272 1.18393 4.14405 0.939928 3.75072 0.785261C3.35605 0.627928 2.95472 0.569261 2.56138 0.61326C2.34538 0.635927 2.13738 0.690594 1.94272 0.77326C1.54538 0.942594 1.21205 1.21459 0.950717 1.57993C0.625384 2.03326 0.448051 2.55059 0.409384 3.16259C0.401384 3.31059 0.401384 3.46259 0.413384 3.62659C0.422718 3.76126 0.440051 3.89859 0.464051 4.03593C0.498718 4.22793 0.55205 4.43059 0.63205 4.67593C0.726717 4.96526 0.852051 5.27593 1.02672 5.65193C1.23472 6.09993 1.47472 6.56526 1.80405 7.15993C2.19472 7.86659 2.63472 8.60659 3.14672 9.42126C3.33872 9.72793 3.53338 10.0319 3.72805 10.3359L3.98405 10.7346L3.93472 10.7626C3.86805 10.8013 3.80138 10.8386 3.73472 10.8786C3.16272 11.2279 2.66672 11.6519 2.26005 12.1359C2.25205 12.1453 2.24538 12.1559 2.23738 12.1666L2.29205 12.2226L2.23072 12.1759L2.14005 12.2999H2.85472H12.8321H13.4054L13.5521 12.2853L13.4321 12.1319C13.1721 11.8239 12.8721 11.5373 12.5387 11.2799C12.2867 11.0866 12.0147 10.9066 11.7267 10.7479C12.0747 10.2159 12.3867 9.72793 12.6801 9.25859C13.2214 8.38793 13.6454 7.67193 14.012 7.00393C14.3054 6.47059 14.5187 6.05459 14.7054 5.65326C14.8867 5.26259 15.0201 4.93326 15.1214 4.61593C15.2361 4.25859 15.3014 3.92393 15.3214 3.59193C15.3334 3.36793 15.3254 3.14526 15.2974 2.92926Z" fill="#231815"/>
</svg>
