<svg width="23" height="23" viewBox="0 0 23 23" fill="none" xmlns="http://www.w3.org/2000/svg">
<path d="M19.5445 19.6065L16.8938 20.5198L15.3205 15.2505C15.2658 15.0638 15.0698 14.9545 14.8871 15.0171C14.7031 15.0705 14.5978 15.2638 14.6538 15.4491L16.3831 21.2451C16.4418 21.4398 16.3351 21.6385 16.1418 21.6998C15.4298 21.9251 13.9151 22.3011 11.7738 22.3025C9.63513 22.3011 8.11913 21.9251 7.4058 21.6998C7.21247 21.6385 7.10713 21.4398 7.16447 21.2451L10.0471 11.5918L11.7738 10.5278L13.5031 11.5918L14.1458 13.7465C14.1911 13.8985 14.3298 13.9958 14.4791 13.9958C14.5125 13.9958 14.5458 13.9918 14.5791 13.9811C14.7631 13.9278 14.8685 13.7331 14.8138 13.5491L14.1831 11.4398L14.6551 10.8451L19.7351 19.0678C19.7938 19.1638 19.8071 19.2798 19.7685 19.3838C19.7311 19.4891 19.6498 19.5705 19.5445 19.6065ZM3.77913 19.3838C3.7418 19.2798 3.7538 19.1638 3.81247 19.0678L8.8938 10.8438L9.3658 11.4398L6.65513 20.5198L4.00447 19.6065C3.8978 19.5705 3.81647 19.4891 3.77913 19.3838ZM8.37113 6.61981C7.91913 5.87181 7.81513 5.07714 8.0818 4.43981C8.3098 3.89847 8.78047 3.52914 9.44713 3.37181C10.8618 3.04114 11.4125 4.88914 11.4325 4.96647C11.4365 4.98114 11.4525 4.98647 11.4591 4.99981C11.4778 5.04914 11.5111 5.07981 11.5511 5.11581C11.5791 5.14114 11.5991 5.16514 11.6325 5.17981C11.6485 5.18781 11.6551 5.20781 11.6725 5.21181C11.7165 5.22514 11.7525 5.20247 11.7951 5.19847C11.8178 5.19714 11.8391 5.21314 11.8631 5.20647C11.8725 5.20381 11.8751 5.19314 11.8845 5.18914C11.9391 5.16914 11.9738 5.13314 12.0125 5.08914C12.0378 5.06114 12.0618 5.04114 12.0765 5.00647C12.0818 4.99314 12.0991 4.98781 12.1031 4.97314C12.1271 4.89447 12.6938 3.03714 14.1018 3.37181C14.7671 3.52914 15.2391 3.89847 15.4658 4.43981C15.7338 5.07714 15.6285 5.87181 15.1778 6.62114C14.2618 8.13981 14.2765 8.53714 14.3271 9.85181L14.3365 10.1238L13.7178 10.9065L11.9511 9.81847C11.9378 9.81047 11.9218 9.81847 11.9085 9.81181C11.8631 9.79314 11.8231 9.79047 11.7738 9.79181C11.7245 9.79047 11.6845 9.79314 11.6391 9.81181C11.6258 9.81847 11.6098 9.81047 11.5978 9.81847L9.83247 10.9065L9.21113 10.1238L9.22047 9.84781C9.27113 8.53581 9.2858 8.13847 8.37113 6.61981ZM15.0338 10.1345L15.0231 9.82514C14.9751 8.58114 14.9658 8.32114 15.7738 6.97981C16.3405 6.03981 16.4631 5.01447 16.1085 4.17048C15.7965 3.42647 15.1418 2.90247 14.2631 2.69447C13.0311 2.39981 12.2151 3.19314 11.7698 3.98781C11.3271 3.19581 10.5125 2.40514 9.2858 2.69447C8.40847 2.90247 7.75247 3.42647 7.44047 4.17048C7.0858 5.01447 7.20713 6.03981 7.7738 6.97981C8.58313 8.32114 8.57247 8.57981 8.52447 9.82114L8.5138 10.1345L3.21913 18.7038C3.0498 18.9785 3.0138 19.3131 3.12313 19.6198C3.23247 19.9238 3.47113 20.1598 3.7778 20.2638L6.48313 21.1971C6.4058 21.7091 6.68713 22.2038 7.19647 22.3651C8.1138 22.6531 9.65113 22.9958 11.7671 22.9971L11.7685 22.9985C11.7698 22.9985 11.7725 22.9985 11.7738 22.9985C11.7765 22.9985 11.7778 22.9985 11.7805 22.9985C13.8991 22.9971 15.4365 22.6531 16.3511 22.3651C16.8618 22.2038 17.1418 21.7091 17.0658 21.1971L19.7711 20.2638C20.0765 20.1598 20.3151 19.9238 20.4245 19.6198C20.5338 19.3131 20.4991 18.9785 20.3285 18.7038L15.0338 10.1345Z" fill="black"/>
<path d="M8.07066 2.71045C8.26266 2.71045 8.41866 2.55445 8.41866 2.36245V0.695782C8.41866 0.503783 8.26266 0.347783 8.07066 0.347783C7.87866 0.347783 7.72266 0.503783 7.72266 0.695782V2.36245C7.72266 2.55445 7.87866 2.71045 8.07066 2.71045Z" fill="black"/>
<path d="M15.4776 2.71045C15.6696 2.71045 15.8256 2.55445 15.8256 2.36245V0.695782C15.8256 0.503783 15.6696 0.347783 15.4776 0.347783C15.2856 0.347783 15.1296 0.503783 15.1296 0.695782V2.36245C15.1296 2.55445 15.2856 2.71045 15.4776 2.71045Z" fill="black"/>
<path d="M3.44258 13.1945C3.44258 13.1838 3.44258 13.1718 3.44258 13.1611C3.41592 13.1385 3.39325 13.1078 3.36392 13.0971C3.24392 13.0531 3.12125 13.0185 3.00125 12.9745C2.66392 12.8491 2.43858 12.5878 2.33192 12.1945C2.29458 12.0598 2.26392 11.9238 2.23058 11.7878C2.21992 11.7425 2.20392 11.7011 2.15858 11.7011C2.10792 11.6985 2.09192 11.7411 2.08125 11.7891C2.04792 11.9278 2.01592 12.0678 1.97858 12.2038C1.86925 12.5905 1.64658 12.8478 1.31458 12.9731C1.19725 13.0171 1.07725 13.0531 0.957249 13.0918C0.918582 13.1051 0.878582 13.1185 0.879915 13.1798C0.881249 13.2411 0.921249 13.2518 0.959915 13.2651C1.07725 13.3038 1.19458 13.3398 1.31058 13.3825C1.64925 13.5078 1.87325 13.7691 1.97992 14.1625C2.01725 14.2998 2.04925 14.4385 2.08258 14.5771C2.09325 14.6211 2.10792 14.6611 2.15725 14.6611C2.20525 14.6598 2.21858 14.6185 2.22925 14.5745C2.25992 14.4505 2.28925 14.3265 2.31992 14.2025C2.42792 13.7718 2.66792 13.4945 3.03858 13.3691C3.14658 13.3318 3.25725 13.2998 3.36525 13.2585C3.39325 13.2478 3.41725 13.2171 3.44258 13.1945Z" fill="black"/>
<path d="M18.3828 7.64718C18.7001 7.76451 18.9094 8.00984 19.0094 8.37784C19.0454 8.50584 19.0748 8.63651 19.1068 8.76584C19.1161 8.80718 19.1294 8.84584 19.1748 8.84451C19.2214 8.84451 19.2334 8.80451 19.2428 8.76451C19.2721 8.64718 19.2988 8.53118 19.3281 8.41518C19.4294 8.01251 19.6534 7.75118 20.0014 7.63384C20.1028 7.60051 20.2054 7.56984 20.3068 7.53118C20.3334 7.52184 20.3548 7.49118 20.3801 7.47118C20.3801 7.46051 20.3788 7.44984 20.3788 7.43918C20.3548 7.41918 20.3334 7.38984 20.3054 7.37918C20.1934 7.33784 20.0788 7.30584 19.9668 7.26451C19.6494 7.14718 19.4401 6.90318 19.3388 6.53518C19.3041 6.40851 19.2748 6.28051 19.2441 6.15251C19.2334 6.11118 19.2201 6.07251 19.1761 6.07118C19.1294 6.06984 19.1148 6.10984 19.1041 6.15518C19.0721 6.28451 19.0441 6.41518 19.0081 6.54318C18.9054 6.90451 18.6974 7.14584 18.3868 7.26318C18.2761 7.30451 18.1641 7.33784 18.0521 7.37518C18.0148 7.38718 17.9788 7.40051 17.9788 7.45651C17.9801 7.51384 18.0174 7.52451 18.0548 7.53651C18.1641 7.57384 18.2748 7.60718 18.3828 7.64718Z" fill="black"/>
<path d="M22.7575 13.1901C22.7402 13.1754 22.7255 13.1554 22.7069 13.1487C22.6295 13.1207 22.5495 13.0981 22.4722 13.0687C22.2522 12.9874 22.1069 12.8194 22.0375 12.5647C22.0135 12.4767 21.9935 12.3887 21.9722 12.3007C21.9655 12.2714 21.9549 12.2447 21.9255 12.2434C21.8935 12.2434 21.8829 12.2701 21.8749 12.3007C21.8535 12.3914 21.8335 12.4821 21.8082 12.5701C21.7375 12.8207 21.5935 12.9874 21.3789 13.0687C21.3029 13.0967 21.2242 13.1194 21.1469 13.1461C21.1215 13.1541 21.0962 13.1634 21.0962 13.2021C21.0975 13.2421 21.1242 13.2487 21.1495 13.2581C21.2242 13.2834 21.3015 13.3061 21.3762 13.3341C21.5949 13.4154 21.7402 13.5847 21.8095 13.8394C21.8349 13.9287 21.8549 14.0181 21.8762 14.1074C21.8842 14.1367 21.8922 14.1634 21.9242 14.1621C21.9562 14.1621 21.9642 14.1354 21.9709 14.1061C21.9909 14.0261 22.0095 13.9461 22.0309 13.8647C22.1002 13.5861 22.2562 13.4061 22.4962 13.3247C22.5669 13.3007 22.6375 13.2794 22.7069 13.2541C22.7255 13.2474 22.7415 13.2261 22.7575 13.2114C22.7575 13.2047 22.7575 13.1981 22.7575 13.1901Z" fill="black"/>
<path d="M3.68894 7.58894C3.9076 7.67028 4.05294 7.83961 4.12227 8.09428C4.1476 8.18361 4.1676 8.27294 4.18894 8.36228C4.19694 8.39161 4.20494 8.41828 4.23694 8.41694C4.26894 8.41694 4.27694 8.39028 4.2836 8.36228C4.3036 8.28094 4.32227 8.20094 4.3436 8.11961C4.41294 7.84094 4.56894 7.66094 4.80894 7.57961C4.8796 7.55561 4.95027 7.53561 5.0196 7.50894C5.03827 7.50228 5.05294 7.48094 5.07027 7.46761C5.07027 7.45961 5.07027 7.45294 5.07027 7.44494C5.05294 7.43161 5.03827 7.41028 5.0196 7.40361C4.94227 7.37561 4.86227 7.35294 4.78494 7.32361C4.56494 7.24228 4.4196 7.07428 4.35027 6.81961C4.32627 6.73161 4.30627 6.64361 4.28494 6.55561C4.27827 6.52628 4.2676 6.49961 4.23827 6.49828C4.20627 6.49828 4.1956 6.52494 4.1876 6.55694C4.16627 6.64628 4.14627 6.73694 4.12094 6.82494C4.05027 7.07561 3.90627 7.24228 3.6916 7.32361C3.61427 7.35161 3.53694 7.37561 3.4596 7.40094C3.43427 7.40894 3.40894 7.41828 3.40894 7.45694C3.41027 7.49694 3.43694 7.50361 3.46227 7.51294C3.53694 7.53828 3.61427 7.56094 3.68894 7.58894Z" fill="black"/>
</svg>
