<svg xmlns="http://www.w3.org/2000/svg" width="43.301" height="25.182" viewBox="0 0 43.301 25.182">
  <g id="그룹_17" data-name="그룹 17" transform="translate(-44 -654)">
    <g id="합치기_10" data-name="합치기 10" transform="translate(1471 644)" fill="none" stroke-linecap="round">
      <path d="M-1426.958,22.43H-1427l.02-.025-.02-.022h.038c.707-.866,11.1-13.449,17.44-12.309a5.845,5.845,0,0,1,4.165,3.312,5.845,5.845,0,0,1,4.166-3.312c6.344-1.139,16.733,11.443,17.439,12.309h.052l-.026.032.012.014h-.024c-.688.845-10.568,12.753-21.008,12.753S-1426.188,23.277-1426.958,22.43Z" stroke="none"/>
      <path d="M -1404.74609375 33.68190383911133 C -1396.435913085938 33.68190383911133 -1388.240356445312 25.266845703125 -1385.693969726562 22.4052562713623 C -1386.72509765625 21.20949363708496 -1388.653198242188 19.06570053100586 -1390.92333984375 16.98640251159668 C -1394.7861328125 13.44838237762451 -1398.132568359375 11.49991226196289 -1400.346435546875 11.49991226196289 C -1400.548950195312 11.49991226196289 -1400.744018554688 11.51649284362793 -1400.92626953125 11.54922294616699 C -1402.243286132812 11.78554248809814 -1403.25830078125 12.61406230926514 -1404.029174804688 14.08211231231689 L -1405.357055664062 16.61129188537598 L -1406.685180664062 14.08219242095947 C -1407.456176757812 12.61408233642578 -1408.470947265625 11.78553295135498 -1409.78759765625 11.5491828918457 C -1409.969604492188 11.51649284362793 -1410.16455078125 11.49991226196289 -1410.367065429688 11.49991226196289 C -1412.580688476562 11.49991226196289 -1415.92724609375 13.44840240478516 -1419.790405273438 16.9864616394043 C -1422.022338867188 19.03050804138184 -1423.923828125 21.13711547851562 -1424.967407226562 22.34393692016602 C -1422.142333984375 25.21511840820312 -1413.102416992188 33.68190383911133 -1404.74609375 33.68190383911133 M -1404.74609375 35.18190383911133 C -1415.186157226562 35.18190383911133 -1426.187744140625 23.2768726348877 -1426.95751953125 22.42962265014648 L -1427.00048828125 22.42890167236328 C -1427.00048828125 22.42890167236328 -1426.99365234375 22.42055320739746 -1426.98046875 22.40427207946777 C -1426.993774414062 22.38961219787598 -1427.00048828125 22.38210296630859 -1427.00048828125 22.38210296630859 L -1426.96240234375 22.38210296630859 C -1426.286376953125 21.55349159240723 -1416.746459960938 9.999916076660156 -1410.367065429688 9.999916076660156 C -1410.07861328125 9.999916076660156 -1409.796997070312 10.02349758148193 -1409.5224609375 10.07280254364014 C -1407.536987304688 10.42920207977295 -1406.223022460938 11.73600292205811 -1405.357177734375 13.38480281829834 C -1404.491455078125 11.73600292205811 -1403.177490234375 10.42920207977295 -1401.191162109375 10.07280254364014 C -1394.845825195312 8.933183670043945 -1384.45849609375 21.51601982116699 -1383.752075195312 22.38210296630859 L -1383.699584960938 22.38210296630859 C -1383.699584960938 22.38210296630859 -1383.708374023438 22.39311218261719 -1383.725708007812 22.41444206237793 C -1383.718017578125 22.42400169372559 -1383.713989257812 22.42890167236328 -1383.713989257812 22.42890167236328 L -1383.73779296875 22.42930221557617 C -1384.425415039062 23.27385330200195 -1394.3056640625 35.18190383911133 -1404.74609375 35.18190383911133 Z" stroke="none" fill="#000"/>
    </g>
    <g id="타원_43" data-name="타원 43" transform="translate(57 665)" fill="none" stroke="#000" stroke-width="1">
      <ellipse cx="9" cy="1.5" rx="9" ry="1.5" stroke="none"/>
      <ellipse cx="9" cy="1.5" rx="8.5" ry="1" fill="none"/>
    </g>
  </g>
</svg>
